<svg width="47" height="39" viewBox="0 0 47 39" fill="none" xmlns="http://www.w3.org/2000/svg">
<path fill-rule="evenodd" clip-rule="evenodd" d="M40.9498 37.6949C40.8018 37.9759 40.5567 38.2315 40.5012 38.5438C40.4844 38.6388 40.4588 38.8006 40.5492 38.8365L40.8219 38.945L41.0353 39C41.4118 38.9872 41.7043 38.914 41.8776 38.4982C42.2187 37.6797 42.1831 36.8788 42.0847 35.9972C41.9597 34.8783 41.5519 34.0075 41.0555 33.2062C40.0799 31.6315 38.9467 30.1278 38.1825 28.4318C38.9352 28.6057 42.0409 30.4901 42.6682 30.9821C43.5864 31.7022 45.6809 33.5848 45.6809 35.0555C45.6809 35.8728 45.2798 36.1879 44.8619 36.8741C44.7412 37.0724 44.8993 37.2362 45.0484 37.3348C45.314 37.3743 45.5884 37.5313 45.8452 37.4535C46.0809 37.382 46.3026 37.2838 46.4371 37.0819C47.7562 35.102 46.4863 32.1283 45.392 30.5305C44.5108 29.3639 43.9512 28.4417 43.2653 27.0781C42.9525 26.4566 42.6133 25.8791 42.2791 25.3066C41.449 23.8848 39.8201 22.0291 38.1825 20.9958C40.2161 19.2584 41.5468 17.8795 42.0882 17.183C44.4079 14.199 45.3915 8.92562 41.3331 5.56133C39.8451 4.32792 37.2855 3.9296 34.9126 3.61744C31.8125 3.20969 27.0464 2.9617 24.2364 1.76976C23.3956 1.41315 22.2596 0.681793 21.7991 0C20.7684 0.684487 19.8458 2.61614 19.8458 4.37412C19.8458 7.25358 22.1028 8.67667 24.6277 9.06769C27.3525 9.48975 30.2415 9.78709 33.0844 10.117C35.7753 10.4293 38.2397 11.444 38.9508 13.7352C39.8474 16.6238 38.2468 19.1908 36.3551 20.1834C35.8945 19.9417 35.0347 19.746 34.3387 19.746C30.8504 19.746 27.8373 22.308 24.2566 22.308C21.1023 22.308 18.2866 20.9428 17.251 18.8825C16.5282 17.4448 16.8117 15.8227 16.5075 14.4332C16.1877 12.973 15.5946 12.2508 14.4897 11.2477C14.4897 10.3126 14.1326 9.37311 13.1034 9.37311C12.5049 9.37311 12.5233 10.2479 12.0952 10.2479C11.5178 10.2479 11.4044 9.31063 11.024 9.31063H10.898C10.4493 9.31063 10.0158 9.75178 10.0158 10.1854C10.0158 10.3457 10.0423 10.4674 10.0788 10.6229C9.48932 10.759 9.01645 11.6003 8.75602 12.1379C8.42775 12.8156 7.3297 13.2268 7.40984 13.6069C7.46733 13.8797 7.56084 14.2061 7.75307 14.4343C8.14501 14.4576 8.5579 14.3992 8.62343 14.4968C8.66818 14.8295 7.84358 14.6013 7.8783 14.687C7.93278 14.8013 8.09777 14.9803 8.3651 14.9971C9.90205 15.0936 11.4679 15.6114 11.4679 17.3449C11.4679 18.5341 11.0457 21.0489 10.7179 21.8795C10.0993 23.3638 9.49991 24.3713 7.50448 24.2182C5.57866 24.0705 3.54613 23.7354 1.67825 24.4129C1.08077 24.6295 0.0254792 25.2619 0.000331704 25.9363C-0.00436929 26.0619 0.0411679 26.176 0.119726 26.2746C0.260189 26.451 0.477001 26.4322 0.689962 26.4322C1.11872 26.4322 1.96557 25.6824 2.70635 25.6824C4.60601 25.6824 6.66663 27.307 9.13363 27.307C9.97789 27.307 10.6403 27.1851 11.4651 26.9946C10.1456 29.4674 5.80074 28.2459 3.39949 28.3068C2.31792 28.3068 1.60014 29.0153 1.19405 29.6816C1.06927 29.8862 1.29951 30.2975 1.53892 30.3004C1.697 30.3023 1.88452 30.3183 2.02816 30.2529C2.41749 30.0753 3.50784 29.5566 4.09263 29.5566C6.01353 29.5566 7.19812 31.4312 10.0788 31.4312C12.1396 31.4312 13.3983 30.6728 14.6788 29.6816C15.8156 30.4364 17.2027 31.3062 19.0896 31.3062H19.1526C21.0743 31.3062 22.902 30.6668 24.3005 30.0999C25.4315 29.6415 27.8877 28.8067 29.3607 28.8067C30.04 28.8067 30.6363 29.0246 31.1418 29.4775C31.5459 29.8397 32.0911 30.2406 32.4338 30.5707C33.5645 31.6596 35.2759 32.6544 36.7336 33.3054C37.7382 33.754 39.0239 34.2359 39.8678 34.9464C40.5433 35.5151 41.4436 36.7566 40.9498 37.6949Z" fill="#56AF31"/>
</svg>
