<svg width="191" height="155" viewBox="0 0 191 155" fill="none" xmlns="http://www.w3.org/2000/svg">
<path d="M133.872 47.529C130.562 50.8364 126.026 52.9189 120.999 52.9189C110.947 52.9189 102.855 44.8341 102.855 34.7893C102.855 24.7445 110.947 16.6597 120.999 16.6597C125.413 16.6597 129.581 18.2521 132.646 20.9471H143.066C142.698 20.3346 142.33 19.8446 141.963 19.2321C143.556 16.6597 145.273 13.2297 145.518 10.0448L141.472 6.49236C138.53 6.98235 135.343 9.4323 133.013 11.5148C131.174 10.5348 129.09 9.79979 127.006 9.3098C126.516 6.36987 125.535 2.57245 123.696 0H118.302C116.463 2.20495 115.605 6.24737 115.115 9.3098C113.521 9.6773 111.927 10.1673 110.456 10.9023C108.25 8.81982 105.307 6.36987 102.243 5.51238L97.7066 8.81982C97.584 11.7598 99.1777 15.4347 100.771 18.1296C99.4229 19.7221 98.1969 21.5595 97.3388 23.5195C94.274 23.2745 90.4736 23.397 87.5314 24.7445L86.3054 30.0119C88.1443 32.3393 91.6995 34.0543 94.7643 35.1568C94.7643 37.3617 95.1321 39.4442 95.6225 41.5266C93.1706 43.3641 90.351 45.9365 88.8799 48.754L91.3317 53.5314C94.274 54.1439 98.0744 53.0414 101.139 51.9389C102.61 53.5314 104.204 55.0014 105.92 56.2263C105.307 59.1663 104.694 62.9637 105.553 66.1486L110.579 68.1086C113.153 66.7611 115.483 63.3312 116.954 60.6362C118.18 60.8812 119.528 60.8812 120.877 60.8812C121.735 60.8812 122.593 60.8812 123.451 60.7587C124.8 63.4537 126.884 66.6386 129.581 68.5986L134.73 66.8836C135.833 64.1887 135.343 60.1462 134.73 56.9613C136.569 55.8588 138.285 54.5114 139.756 52.9189C142.576 54.0214 146.253 55.1238 149.441 54.8789L152.26 50.2239C151.893 49.244 151.28 48.264 150.544 47.284H133.872V47.529Z" fill="#0053A0"/>
<mask id="mask0_42_799" style="mask-type:luminance" maskUnits="userSpaceOnUse" x="18" y="104" width="47" height="34">
<path d="M18.6342 104.123C24.1508 133.032 47.8113 137.442 47.8113 137.442L64.7291 109.758C64.7291 109.758 37.6361 117.23 19.3697 104.735L18.6342 104.123Z" fill="white"/>
</mask>
<g mask="url(#mask0_42_799)">
<mask id="mask1_42_799" style="mask-type:luminance" maskUnits="userSpaceOnUse" x="19" y="102" width="47" height="35">
<path d="M65.8325 102.898H19.7375V136.217H65.8325V102.898Z" fill="white"/>
</mask>
<g mask="url(#mask1_42_799)">
<mask id="mask2_42_799" style="mask-type:luminance" maskUnits="userSpaceOnUse" x="19" y="102" width="47" height="35">
<path d="M65.8325 102.898H19.7375V136.217H65.8325V102.898Z" fill="white"/>
</mask>
<g mask="url(#mask2_42_799)">
<mask id="mask3_42_799" style="mask-type:luminance" maskUnits="userSpaceOnUse" x="19" y="102" width="47" height="35">
<path d="M65.8325 102.898H19.7375V136.095H65.8325V102.898Z" fill="white"/>
</mask>
<g mask="url(#mask3_42_799)">
<mask id="mask4_42_799" style="mask-type:luminance" maskUnits="userSpaceOnUse" x="19" y="102" width="47" height="35">
<path d="M65.8325 102.898H19.7375V136.095H65.8325V102.898Z" fill="white"/>
</mask>
<g mask="url(#mask4_42_799)">
<mask id="mask5_42_799" style="mask-type:luminance" maskUnits="userSpaceOnUse" x="19" y="103" width="47" height="34">
<path d="M65.8325 103.02H19.7375V136.217H65.8325V103.02Z" fill="white"/>
</mask>
<g mask="url(#mask5_42_799)">
<mask id="mask6_42_799" style="mask-type:luminance" maskUnits="userSpaceOnUse" x="19" y="103" width="47" height="34">
<path d="M65.8325 103.02H19.7375V136.217H65.8325V103.02Z" fill="white"/>
</mask>
<g mask="url(#mask6_42_799)">
<mask id="mask7_42_799" style="mask-type:luminance" maskUnits="userSpaceOnUse" x="19" y="103" width="47" height="34">
<path d="M65.8325 103.02H19.7375V136.217H65.8325V103.02Z" fill="white"/>
</mask>
<g mask="url(#mask7_42_799)">
<mask id="mask8_42_799" style="mask-type:luminance" maskUnits="userSpaceOnUse" x="19" y="103" width="47" height="34">
<path d="M65.8325 103.02H19.7375V136.217H65.8325V103.02Z" fill="white"/>
</mask>
<g mask="url(#mask8_42_799)">
<mask id="mask9_42_799" style="mask-type:luminance" maskUnits="userSpaceOnUse" x="19" y="103" width="47" height="34">
<path d="M65.8325 103.02H19.7375V136.217H65.8325V103.02Z" fill="white"/>
</mask>
<g mask="url(#mask9_42_799)">
<mask id="mask10_42_799" style="mask-type:luminance" maskUnits="userSpaceOnUse" x="19" y="103" width="47" height="34">
<path d="M65.8325 103.02H19.7375V136.217H65.8325V103.02Z" fill="white"/>
</mask>
<g mask="url(#mask10_42_799)">
<mask id="mask11_42_799" style="mask-type:luminance" maskUnits="userSpaceOnUse" x="19" y="103" width="47" height="34">
<path d="M65.8325 103.02H19.7375V136.217H65.8325V103.02Z" fill="white"/>
</mask>
<g mask="url(#mask11_42_799)">
<mask id="mask12_42_799" style="mask-type:luminance" maskUnits="userSpaceOnUse" x="19" y="103" width="47" height="34">
<path d="M65.8325 103.02H19.7375V136.217H65.8325V103.02Z" fill="white"/>
</mask>
<g mask="url(#mask12_42_799)">
<mask id="mask13_42_799" style="mask-type:luminance" maskUnits="userSpaceOnUse" x="19" y="103" width="47" height="34">
<path d="M65.8325 103.02H19.7375V136.217H65.8325V103.02Z" fill="white"/>
</mask>
<g mask="url(#mask13_42_799)">
<mask id="mask14_42_799" style="mask-type:luminance" maskUnits="userSpaceOnUse" x="19" y="103" width="47" height="34">
<path d="M65.8325 103.02H19.7375V136.217H65.8325V103.02Z" fill="white"/>
</mask>
<g mask="url(#mask14_42_799)">
<path d="M65.8325 103.02H19.7375V136.217H65.8325V103.02Z" fill="url(#paint0_linear_42_799)"/>
</g>
</g>
</g>
</g>
</g>
</g>
</g>
</g>
</g>
</g>
</g>
</g>
</g>
</g>
</g>
<mask id="mask15_42_799" style="mask-type:luminance" maskUnits="userSpaceOnUse" x="47" y="109" width="50" height="30">
<path d="M47.6887 137.442C86.6733 145.894 96.6033 109.513 96.6033 109.513C79.9307 122.62 60.8062 116.25 60.8062 116.25L47.6887 137.442Z" fill="white"/>
</mask>
<g mask="url(#mask15_42_799)">
<mask id="mask16_42_799" style="mask-type:luminance" maskUnits="userSpaceOnUse" x="46" y="111" width="50" height="37">
<path d="M95.2548 111.473H46.3402V147.977H95.2548V111.473Z" fill="white"/>
</mask>
<g mask="url(#mask16_42_799)">
<mask id="mask17_42_799" style="mask-type:luminance" maskUnits="userSpaceOnUse" x="46" y="111" width="50" height="37">
<path d="M95.2548 111.473H46.3402V147.977H95.2548V111.473Z" fill="white"/>
</mask>
<g mask="url(#mask17_42_799)">
<mask id="mask18_42_799" style="mask-type:luminance" maskUnits="userSpaceOnUse" x="46" y="111" width="50" height="37">
<path d="M95.2548 111.473H46.3402V147.977H95.2548V111.473Z" fill="white"/>
</mask>
<g mask="url(#mask18_42_799)">
<mask id="mask19_42_799" style="mask-type:luminance" maskUnits="userSpaceOnUse" x="46" y="111" width="50" height="37">
<path d="M95.2548 111.473H46.3402V147.977H95.2548V111.473Z" fill="white"/>
</mask>
<g mask="url(#mask19_42_799)">
<mask id="mask20_42_799" style="mask-type:luminance" maskUnits="userSpaceOnUse" x="46" y="111" width="50" height="37">
<path d="M95.2548 111.473H46.3402V147.977H95.2548V111.473Z" fill="white"/>
</mask>
<g mask="url(#mask20_42_799)">
<mask id="mask21_42_799" style="mask-type:luminance" maskUnits="userSpaceOnUse" x="46" y="111" width="50" height="37">
<path d="M95.2548 111.473H46.3402V147.977H95.2548V111.473Z" fill="white"/>
</mask>
<g mask="url(#mask21_42_799)">
<mask id="mask22_42_799" style="mask-type:luminance" maskUnits="userSpaceOnUse" x="46" y="111" width="50" height="37">
<path d="M95.2548 111.473H46.3402V147.977H95.2548V111.473Z" fill="white"/>
</mask>
<g mask="url(#mask22_42_799)">
<mask id="mask23_42_799" style="mask-type:luminance" maskUnits="userSpaceOnUse" x="46" y="111" width="50" height="37">
<path d="M95.2548 111.473H46.3402V147.977H95.2548V111.473Z" fill="white"/>
</mask>
<g mask="url(#mask23_42_799)">
<mask id="mask24_42_799" style="mask-type:luminance" maskUnits="userSpaceOnUse" x="46" y="111" width="50" height="37">
<path d="M95.2548 111.473H46.3402V147.977H95.2548V111.473Z" fill="white"/>
</mask>
<g mask="url(#mask24_42_799)">
<mask id="mask25_42_799" style="mask-type:luminance" maskUnits="userSpaceOnUse" x="46" y="111" width="50" height="37">
<path d="M95.2548 111.473H46.3402V147.977H95.2548V111.473Z" fill="white"/>
</mask>
<g mask="url(#mask25_42_799)">
<mask id="mask26_42_799" style="mask-type:luminance" maskUnits="userSpaceOnUse" x="46" y="111" width="50" height="37">
<path d="M95.2548 111.473H46.3402V147.977H95.2548V111.473Z" fill="white"/>
</mask>
<g mask="url(#mask26_42_799)">
<mask id="mask27_42_799" style="mask-type:luminance" maskUnits="userSpaceOnUse" x="46" y="111" width="50" height="37">
<path d="M95.2548 111.473H46.3402V147.977H95.2548V111.473Z" fill="white"/>
</mask>
<g mask="url(#mask27_42_799)">
<mask id="mask28_42_799" style="mask-type:luminance" maskUnits="userSpaceOnUse" x="46" y="111" width="50" height="37">
<path d="M95.2548 111.473H46.3402V147.977H95.2548V111.473Z" fill="white"/>
</mask>
<g mask="url(#mask28_42_799)">
<mask id="mask29_42_799" style="mask-type:luminance" maskUnits="userSpaceOnUse" x="46" y="111" width="50" height="37">
<path d="M95.2548 111.473H46.3402V147.977H95.2548V111.473Z" fill="white"/>
</mask>
<g mask="url(#mask29_42_799)">
<path d="M95.2548 111.473H46.3402V147.977H95.2548V111.473Z" fill="url(#paint1_linear_42_799)"/>
</g>
</g>
</g>
</g>
</g>
</g>
</g>
</g>
</g>
</g>
</g>
</g>
</g>
</g>
</g>
<mask id="mask30_42_799" style="mask-type:luminance" maskUnits="userSpaceOnUse" x="18" y="104" width="47" height="21">
<path d="M18.6342 104.123C19.8601 110.738 22.1894 116.128 24.7638 120.415C31.0161 130.46 60.0706 120.17 57.251 121.762L64.6066 109.758C64.6066 109.758 37.5135 117.23 19.2471 104.735L18.6342 104.123Z" fill="white"/>
</mask>
<g mask="url(#mask30_42_799)">
<mask id="mask31_42_799" style="mask-type:luminance" maskUnits="userSpaceOnUse" x="18" y="103" width="47" height="27">
<path d="M64.6066 103.143H18.5116V129.48H64.6066V103.143Z" fill="white"/>
</mask>
<g mask="url(#mask31_42_799)">
<mask id="mask32_42_799" style="mask-type:luminance" maskUnits="userSpaceOnUse" x="18" y="103" width="47" height="27">
<path d="M64.6066 103.143H18.5116V129.48H64.6066V103.143Z" fill="white"/>
</mask>
<g mask="url(#mask32_42_799)">
<mask id="mask33_42_799" style="mask-type:luminance" maskUnits="userSpaceOnUse" x="18" y="103" width="47" height="27">
<path d="M64.6066 103.143H18.5116V129.48H64.6066V103.143Z" fill="white"/>
</mask>
<g mask="url(#mask33_42_799)">
<mask id="mask34_42_799" style="mask-type:luminance" maskUnits="userSpaceOnUse" x="18" y="103" width="47" height="27">
<path d="M64.6066 103.143H18.5116V129.48H64.6066V103.143Z" fill="white"/>
</mask>
<g mask="url(#mask34_42_799)">
<mask id="mask35_42_799" style="mask-type:luminance" maskUnits="userSpaceOnUse" x="18" y="103" width="47" height="27">
<path d="M64.6066 103.143H18.5116V129.48H64.6066V103.143Z" fill="white"/>
</mask>
<g mask="url(#mask35_42_799)">
<mask id="mask36_42_799" style="mask-type:luminance" maskUnits="userSpaceOnUse" x="18" y="103" width="47" height="27">
<path d="M64.6066 103.143H18.5116V129.48H64.6066V103.143Z" fill="white"/>
</mask>
<g mask="url(#mask36_42_799)">
<mask id="mask37_42_799" style="mask-type:luminance" maskUnits="userSpaceOnUse" x="18" y="103" width="47" height="27">
<path d="M64.6066 103.143H18.5116V129.48H64.6066V103.143Z" fill="white"/>
</mask>
<g mask="url(#mask37_42_799)">
<mask id="mask38_42_799" style="mask-type:luminance" maskUnits="userSpaceOnUse" x="18" y="103" width="47" height="27">
<path d="M64.6066 103.143H18.5116V129.48H64.6066V103.143Z" fill="white"/>
</mask>
<g mask="url(#mask38_42_799)">
<mask id="mask39_42_799" style="mask-type:luminance" maskUnits="userSpaceOnUse" x="18" y="103" width="47" height="27">
<path d="M64.6066 103.143H18.5116V129.48H64.6066V103.143Z" fill="white"/>
</mask>
<g mask="url(#mask39_42_799)">
<mask id="mask40_42_799" style="mask-type:luminance" maskUnits="userSpaceOnUse" x="18" y="103" width="47" height="27">
<path d="M64.6066 103.143H18.5116V129.48H64.6066V103.143Z" fill="white"/>
</mask>
<g mask="url(#mask40_42_799)">
<mask id="mask41_42_799" style="mask-type:luminance" maskUnits="userSpaceOnUse" x="18" y="103" width="47" height="27">
<path d="M64.6066 103.143H18.5116V129.48H64.6066V103.143Z" fill="white"/>
</mask>
<g mask="url(#mask41_42_799)">
<mask id="mask42_42_799" style="mask-type:luminance" maskUnits="userSpaceOnUse" x="18" y="103" width="47" height="27">
<path d="M64.6066 103.143H18.5116V129.48H64.6066V103.143Z" fill="white"/>
</mask>
<g mask="url(#mask42_42_799)">
<mask id="mask43_42_799" style="mask-type:luminance" maskUnits="userSpaceOnUse" x="18" y="103" width="47" height="27">
<path d="M64.6066 103.143H18.5116V129.48H64.6066V103.143Z" fill="white"/>
</mask>
<g mask="url(#mask43_42_799)">
<mask id="mask44_42_799" style="mask-type:luminance" maskUnits="userSpaceOnUse" x="18" y="103" width="47" height="27">
<path d="M64.6066 103.143H18.5116V129.48H64.6066V103.143Z" fill="white"/>
</mask>
<g mask="url(#mask44_42_799)">
<path d="M64.6066 103.143H18.5116V129.48H64.6066V103.143Z" fill="url(#paint2_linear_42_799)"/>
</g>
</g>
</g>
</g>
</g>
</g>
</g>
</g>
</g>
</g>
</g>
</g>
</g>
</g>
</g>
<path d="M18.6342 104.123C19.8601 110.738 22.1894 116.128 24.7638 120.415C31.0161 130.46 60.0706 120.17 57.251 121.762L64.6066 109.758C64.6066 109.758 37.5135 117.23 19.2471 104.735L18.6342 104.123Z" stroke="#C6C6C6" stroke-width="0.7169"/>
<mask id="mask45_42_799" style="mask-type:luminance" maskUnits="userSpaceOnUse" x="53" y="109" width="44" height="22">
<path d="M53.4506 128.01C53.4506 128.01 79.6855 134.502 87.0411 126.295C94.1515 118.333 96.6033 109.39 96.6033 109.39C79.9307 122.497 60.8061 116.128 60.8061 116.128L53.4506 128.01Z" fill="white"/>
</mask>
<g mask="url(#mask45_42_799)">
<mask id="mask46_42_799" style="mask-type:luminance" maskUnits="userSpaceOnUse" x="53" y="110" width="44" height="26">
<path d="M96.4808 110.003H53.328V135.115H96.4808V110.003Z" fill="white"/>
</mask>
<g mask="url(#mask46_42_799)">
<mask id="mask47_42_799" style="mask-type:luminance" maskUnits="userSpaceOnUse" x="53" y="110" width="44" height="26">
<path d="M96.4808 110.003H53.328V135.115H96.4808V110.003Z" fill="white"/>
</mask>
<g mask="url(#mask47_42_799)">
<mask id="mask48_42_799" style="mask-type:luminance" maskUnits="userSpaceOnUse" x="53" y="110" width="44" height="26">
<path d="M96.4808 110.003H53.328V135.115H96.4808V110.003Z" fill="white"/>
</mask>
<g mask="url(#mask48_42_799)">
<mask id="mask49_42_799" style="mask-type:luminance" maskUnits="userSpaceOnUse" x="53" y="110" width="44" height="26">
<path d="M96.4808 110.003H53.328V135.115H96.4808V110.003Z" fill="white"/>
</mask>
<g mask="url(#mask49_42_799)">
<mask id="mask50_42_799" style="mask-type:luminance" maskUnits="userSpaceOnUse" x="53" y="110" width="44" height="26">
<path d="M96.4808 110.003H53.328V135.115H96.4808V110.003Z" fill="white"/>
</mask>
<g mask="url(#mask50_42_799)">
<mask id="mask51_42_799" style="mask-type:luminance" maskUnits="userSpaceOnUse" x="53" y="110" width="44" height="26">
<path d="M96.4808 110.003H53.328V135.115H96.4808V110.003Z" fill="white"/>
</mask>
<g mask="url(#mask51_42_799)">
<mask id="mask52_42_799" style="mask-type:luminance" maskUnits="userSpaceOnUse" x="53" y="110" width="44" height="26">
<path d="M96.4808 110.003H53.328V135.115H96.4808V110.003Z" fill="white"/>
</mask>
<g mask="url(#mask52_42_799)">
<mask id="mask53_42_799" style="mask-type:luminance" maskUnits="userSpaceOnUse" x="53" y="110" width="44" height="26">
<path d="M96.4808 110.003H53.328V135.115H96.4808V110.003Z" fill="white"/>
</mask>
<g mask="url(#mask53_42_799)">
<mask id="mask54_42_799" style="mask-type:luminance" maskUnits="userSpaceOnUse" x="53" y="110" width="44" height="26">
<path d="M96.4808 110.003H53.328V135.115H96.4808V110.003Z" fill="white"/>
</mask>
<g mask="url(#mask54_42_799)">
<mask id="mask55_42_799" style="mask-type:luminance" maskUnits="userSpaceOnUse" x="53" y="110" width="44" height="26">
<path d="M96.4808 110.003H53.328V135.115H96.4808V110.003Z" fill="white"/>
</mask>
<g mask="url(#mask55_42_799)">
<mask id="mask56_42_799" style="mask-type:luminance" maskUnits="userSpaceOnUse" x="53" y="110" width="44" height="26">
<path d="M96.4808 110.003H53.328V135.115H96.4808V110.003Z" fill="white"/>
</mask>
<g mask="url(#mask56_42_799)">
<mask id="mask57_42_799" style="mask-type:luminance" maskUnits="userSpaceOnUse" x="53" y="110" width="44" height="26">
<path d="M96.4808 110.003H53.328V135.115H96.4808V110.003Z" fill="white"/>
</mask>
<g mask="url(#mask57_42_799)">
<mask id="mask58_42_799" style="mask-type:luminance" maskUnits="userSpaceOnUse" x="53" y="110" width="44" height="26">
<path d="M96.4808 110.003H53.328V135.115H96.4808V110.003Z" fill="white"/>
</mask>
<g mask="url(#mask58_42_799)">
<mask id="mask59_42_799" style="mask-type:luminance" maskUnits="userSpaceOnUse" x="53" y="110" width="44" height="26">
<path d="M96.4808 110.003H53.328V135.115H96.4808V110.003Z" fill="white"/>
</mask>
<g mask="url(#mask59_42_799)">
<path d="M96.4808 110.003H53.328V135.115H96.4808V110.003Z" fill="url(#paint3_linear_42_799)"/>
</g>
</g>
</g>
</g>
</g>
</g>
</g>
</g>
</g>
</g>
</g>
</g>
</g>
</g>
</g>
<path d="M53.4506 128.01C53.4506 128.01 79.6855 134.502 87.0411 126.295C94.1515 118.333 96.6033 109.39 96.6033 109.39C79.9307 122.497 60.8061 116.128 60.8061 116.128L53.4506 128.01Z" stroke="#C6C6C6" stroke-width="0.7169"/>
<mask id="mask60_42_799" style="mask-type:luminance" maskUnits="userSpaceOnUse" x="21" y="113" width="39" height="17">
<path d="M21.4538 114.045C19.3697 113.065 37.1457 123.355 59.3351 118.7L52.8376 129.235C52.8376 129.235 31.629 130.215 26.3575 123.355C23.4153 119.557 21.4538 114.045 21.4538 114.045Z" fill="white"/>
</mask>
<g mask="url(#mask60_42_799)">
<mask id="mask61_42_799" style="mask-type:luminance" maskUnits="userSpaceOnUse" x="19" y="113" width="41" height="18">
<path d="M59.8254 113.678H19.8601V130.827H59.8254V113.678Z" fill="white"/>
</mask>
<g mask="url(#mask61_42_799)">
<mask id="mask62_42_799" style="mask-type:luminance" maskUnits="userSpaceOnUse" x="19" y="113" width="41" height="18">
<path d="M59.8254 113.678H19.8601V130.827H59.8254V113.678Z" fill="white"/>
</mask>
<g mask="url(#mask62_42_799)">
<mask id="mask63_42_799" style="mask-type:luminance" maskUnits="userSpaceOnUse" x="19" y="113" width="41" height="18">
<path d="M59.8254 113.678H19.8601V130.827H59.8254V113.678Z" fill="white"/>
</mask>
<g mask="url(#mask63_42_799)">
<mask id="mask64_42_799" style="mask-type:luminance" maskUnits="userSpaceOnUse" x="19" y="113" width="41" height="18">
<path d="M59.8254 113.678H19.8601V130.827H59.8254V113.678Z" fill="white"/>
</mask>
<g mask="url(#mask64_42_799)">
<mask id="mask65_42_799" style="mask-type:luminance" maskUnits="userSpaceOnUse" x="19" y="113" width="41" height="18">
<path d="M59.8254 113.678H19.8601V130.827H59.8254V113.678Z" fill="white"/>
</mask>
<g mask="url(#mask65_42_799)">
<mask id="mask66_42_799" style="mask-type:luminance" maskUnits="userSpaceOnUse" x="19" y="113" width="41" height="18">
<path d="M59.8254 113.678H19.8601V130.827H59.8254V113.678Z" fill="white"/>
</mask>
<g mask="url(#mask66_42_799)">
<mask id="mask67_42_799" style="mask-type:luminance" maskUnits="userSpaceOnUse" x="19" y="113" width="41" height="18">
<path d="M59.8254 113.678H19.8601V130.705H59.8254V113.678Z" fill="white"/>
</mask>
<g mask="url(#mask67_42_799)">
<mask id="mask68_42_799" style="mask-type:luminance" maskUnits="userSpaceOnUse" x="19" y="113" width="41" height="18">
<path d="M59.8254 113.8H19.8601V130.827H59.8254V113.8Z" fill="white"/>
</mask>
<g mask="url(#mask68_42_799)">
<mask id="mask69_42_799" style="mask-type:luminance" maskUnits="userSpaceOnUse" x="19" y="113" width="41" height="18">
<path d="M59.8254 113.8H19.8601V130.827H59.8254V113.8Z" fill="white"/>
</mask>
<g mask="url(#mask69_42_799)">
<mask id="mask70_42_799" style="mask-type:luminance" maskUnits="userSpaceOnUse" x="19" y="113" width="41" height="18">
<path d="M59.8254 113.8H19.8601V130.827H59.8254V113.8Z" fill="white"/>
</mask>
<g mask="url(#mask70_42_799)">
<mask id="mask71_42_799" style="mask-type:luminance" maskUnits="userSpaceOnUse" x="19" y="113" width="41" height="18">
<path d="M59.8254 113.8H19.8601V130.827H59.8254V113.8Z" fill="white"/>
</mask>
<g mask="url(#mask71_42_799)">
<mask id="mask72_42_799" style="mask-type:luminance" maskUnits="userSpaceOnUse" x="19" y="113" width="41" height="18">
<path d="M59.8254 113.8H19.8601V130.827H59.8254V113.8Z" fill="white"/>
</mask>
<g mask="url(#mask72_42_799)">
<mask id="mask73_42_799" style="mask-type:luminance" maskUnits="userSpaceOnUse" x="19" y="113" width="41" height="18">
<path d="M59.8254 113.8H19.8601V130.827H59.8254V113.8Z" fill="white"/>
</mask>
<g mask="url(#mask73_42_799)">
<mask id="mask74_42_799" style="mask-type:luminance" maskUnits="userSpaceOnUse" x="19" y="113" width="41" height="18">
<path d="M59.8254 113.8H19.8601V130.705H59.8254V113.8Z" fill="white"/>
</mask>
<g mask="url(#mask74_42_799)">
<path d="M59.8254 113.8H19.8601V130.705H59.8254V113.8Z" fill="url(#paint4_linear_42_799)"/>
</g>
</g>
</g>
</g>
</g>
</g>
</g>
</g>
</g>
</g>
</g>
</g>
</g>
</g>
</g>
<mask id="mask75_42_799" style="mask-type:luminance" maskUnits="userSpaceOnUse" x="51" y="120" width="42" height="14">
<path d="M56.7607 122.497C56.7607 122.497 70.8589 129.48 92.0675 120.17C92.0675 120.17 85.0797 129.725 81.8922 130.95C81.8922 130.95 70.0007 136.707 51.8569 130.705L56.7607 122.497Z" fill="white"/>
</mask>
<g mask="url(#mask75_42_799)">
<mask id="mask76_42_799" style="mask-type:luminance" maskUnits="userSpaceOnUse" x="50" y="118" width="41" height="18">
<path d="M90.9641 118.945H50.631V135.482H90.9641V118.945Z" fill="white"/>
</mask>
<g mask="url(#mask76_42_799)">
<mask id="mask77_42_799" style="mask-type:luminance" maskUnits="userSpaceOnUse" x="50" y="118" width="41" height="18">
<path d="M90.9641 118.945H50.631V135.482H90.9641V118.945Z" fill="white"/>
</mask>
<g mask="url(#mask77_42_799)">
<mask id="mask78_42_799" style="mask-type:luminance" maskUnits="userSpaceOnUse" x="50" y="118" width="41" height="18">
<path d="M90.9641 118.945H50.631V135.482H90.9641V118.945Z" fill="white"/>
</mask>
<g mask="url(#mask78_42_799)">
<mask id="mask79_42_799" style="mask-type:luminance" maskUnits="userSpaceOnUse" x="50" y="118" width="41" height="18">
<path d="M90.9641 118.945H50.631V135.482H90.9641V118.945Z" fill="white"/>
</mask>
<g mask="url(#mask79_42_799)">
<mask id="mask80_42_799" style="mask-type:luminance" maskUnits="userSpaceOnUse" x="50" y="118" width="41" height="18">
<path d="M90.9641 118.945H50.631V135.482H90.9641V118.945Z" fill="white"/>
</mask>
<g mask="url(#mask80_42_799)">
<mask id="mask81_42_799" style="mask-type:luminance" maskUnits="userSpaceOnUse" x="50" y="118" width="41" height="18">
<path d="M90.9641 118.945H50.631V135.482H90.9641V118.945Z" fill="white"/>
</mask>
<g mask="url(#mask81_42_799)">
<mask id="mask82_42_799" style="mask-type:luminance" maskUnits="userSpaceOnUse" x="50" y="118" width="41" height="18">
<path d="M90.9641 118.945H50.631V135.482H90.9641V118.945Z" fill="white"/>
</mask>
<g mask="url(#mask82_42_799)">
<mask id="mask83_42_799" style="mask-type:luminance" maskUnits="userSpaceOnUse" x="50" y="118" width="41" height="18">
<path d="M90.9641 118.945H50.631V135.482H90.9641V118.945Z" fill="white"/>
</mask>
<g mask="url(#mask83_42_799)">
<mask id="mask84_42_799" style="mask-type:luminance" maskUnits="userSpaceOnUse" x="50" y="118" width="41" height="18">
<path d="M90.9641 118.945H50.631V135.482H90.9641V118.945Z" fill="white"/>
</mask>
<g mask="url(#mask84_42_799)">
<mask id="mask85_42_799" style="mask-type:luminance" maskUnits="userSpaceOnUse" x="50" y="118" width="41" height="18">
<path d="M90.9641 118.945H50.631V135.482H90.9641V118.945Z" fill="white"/>
</mask>
<g mask="url(#mask85_42_799)">
<mask id="mask86_42_799" style="mask-type:luminance" maskUnits="userSpaceOnUse" x="50" y="118" width="41" height="18">
<path d="M90.9641 118.945H50.631V135.482H90.9641V118.945Z" fill="white"/>
</mask>
<g mask="url(#mask86_42_799)">
<mask id="mask87_42_799" style="mask-type:luminance" maskUnits="userSpaceOnUse" x="50" y="118" width="41" height="18">
<path d="M90.9641 118.945H50.631V135.482H90.9641V118.945Z" fill="white"/>
</mask>
<g mask="url(#mask87_42_799)">
<mask id="mask88_42_799" style="mask-type:luminance" maskUnits="userSpaceOnUse" x="50" y="118" width="41" height="18">
<path d="M90.9641 118.945H50.631V135.482H90.9641V118.945Z" fill="white"/>
</mask>
<g mask="url(#mask88_42_799)">
<mask id="mask89_42_799" style="mask-type:luminance" maskUnits="userSpaceOnUse" x="50" y="118" width="41" height="18">
<path d="M90.9641 118.945H50.631V135.482H90.9641V118.945Z" fill="white"/>
</mask>
<g mask="url(#mask89_42_799)">
<path d="M90.9641 118.945H50.631V135.482H90.9641V118.945Z" fill="url(#paint5_linear_42_799)"/>
</g>
</g>
</g>
</g>
</g>
</g>
</g>
</g>
</g>
</g>
</g>
</g>
</g>
</g>
</g>
<path d="M45.482 71.661V71.906C45.482 73.2535 45.2368 74.111 44.7464 74.7234C44.2561 75.3359 43.3979 75.5809 42.172 75.5809C40.9461 75.5809 39.9653 75.3359 39.4749 74.7234C38.9846 74.111 38.7394 73.131 38.7394 71.661V68.2311C38.7394 66.7611 38.9846 65.7811 39.4749 65.1686C39.9653 64.5562 40.9461 64.3112 42.172 64.3112C43.2753 64.3112 44.1335 64.5562 44.6238 65.1686C45.1142 65.6586 45.3594 66.5161 45.3594 67.4961V67.7411V68.1086H43.0301V67.7411C43.0301 67.1286 43.0301 66.7611 42.785 66.3936C42.6624 65.9036 42.5398 65.7811 42.172 65.7811C41.8042 65.7811 41.4364 65.9036 41.1912 66.2711C40.9461 66.6386 40.9461 67.1286 40.9461 67.8636V71.2935C40.9461 72.2735 41.0686 72.886 41.1912 73.2535C41.3138 73.621 41.6816 73.866 42.172 73.866C42.5398 73.866 42.7849 73.7435 42.9075 73.376C43.0301 73.0085 43.1527 72.5185 43.1527 71.906V71.5385H45.482V71.661Z" fill="#0053A0"/>
<path d="M47.9339 74.7234C47.4436 74.111 47.1984 73.131 47.1984 71.7835V67.2511C47.1984 66.2711 47.4436 65.4136 48.0565 64.9236C48.6695 64.4337 49.5276 64.1887 50.631 64.1887C51.7343 64.1887 52.5925 64.4337 53.2054 64.9236C53.8184 65.4136 54.0636 66.2711 54.0636 67.2511V71.7835C54.0636 73.131 53.8184 74.111 53.328 74.7234C52.8376 75.3359 51.8569 75.5809 50.631 75.5809C49.2824 75.5809 48.4243 75.3359 47.9339 74.7234ZM51.4891 73.4985C51.6117 73.2535 51.7343 72.641 51.7343 71.906V67.3736C51.7343 66.8836 51.6117 66.5161 51.4891 66.2711C51.2439 66.0261 50.9987 65.9036 50.631 65.9036C50.2632 65.9036 49.8954 66.0261 49.7728 66.2711C49.5276 66.5161 49.5276 66.8836 49.5276 67.3736V71.906C49.5276 72.641 49.6502 73.131 49.7728 73.4985C49.8954 73.7435 50.2632 73.9885 50.631 73.9885C50.9987 73.866 51.2439 73.7435 51.4891 73.4985Z" fill="#0053A0"/>
<path d="M56.0249 64.3112H57.1282H58.2316V68.8436H59.8253V67.1286C59.8253 66.1486 60.0705 65.2911 60.6834 64.8011C61.2964 64.3112 62.1546 64.0662 63.2579 64.0662C64.3612 64.0662 65.2194 64.3112 65.8323 64.8011C66.4453 65.2911 66.6905 66.1486 66.6905 67.1286V71.661C66.6905 72.886 66.4453 73.866 65.8323 74.4784C65.342 75.2134 64.4838 75.5809 63.3805 75.5809C62.2771 75.5809 61.419 75.2134 60.806 74.6009C60.1931 73.9885 59.9479 73.0085 59.9479 71.7835V70.5585H58.3542V75.4584H57.2508H56.0249V64.3112ZM62.3997 66.1486C62.2771 66.3936 62.1546 66.7611 62.1546 67.3736V71.906C62.1546 72.641 62.2771 73.131 62.3997 73.4985C62.5223 73.7435 62.8901 73.9885 63.2579 73.9885C63.7483 73.9885 63.9934 73.866 64.116 73.4985C64.2386 73.2535 64.3612 72.641 64.3612 71.906V67.3736C64.3612 66.7611 64.2386 66.3936 64.116 66.1486C64.116 65.9036 63.7483 65.7811 63.3805 65.7811C62.8901 65.7811 62.6449 65.9036 62.3997 66.1486Z" fill="#0053A0"/>
<path d="M69.3877 74.7234C68.8973 74.111 68.6521 73.2535 68.6521 71.906V71.5385H70.9814V71.906C70.9814 72.5185 71.104 73.0085 71.2266 73.376C71.4717 73.7435 71.7169 73.866 72.0847 73.866C72.5751 73.866 72.8203 73.7435 73.0654 73.4985C73.188 73.2535 73.3106 72.7635 73.3106 72.151V71.906C73.3106 71.2935 73.188 70.926 73.0654 70.8035C72.9429 70.5585 72.5751 70.436 72.0847 70.436H71.104V68.7211H72.2073C72.6977 68.7211 72.9429 68.5986 73.0654 68.4761C73.188 68.2311 73.3106 67.8636 73.3106 67.3736V67.1286C73.3106 66.6386 73.188 66.2711 73.0654 66.1486C72.9429 65.9036 72.5751 65.9036 72.2073 65.9036C71.8395 65.9036 71.5943 66.0261 71.3491 66.3936C71.2266 66.6386 71.104 67.1286 71.104 67.7411V68.1086H68.7747V67.7411C68.7747 66.6386 69.0199 65.7811 69.5102 65.1686C70.1232 64.5562 70.9814 64.3112 72.0847 64.3112C73.188 64.3112 74.0462 64.5562 74.6592 64.9236C75.2721 65.2911 75.5173 66.0261 75.5173 66.8836V67.0061C75.5173 68.1086 75.2721 68.9661 74.7818 69.3336C74.6592 69.4561 74.414 69.5785 74.1688 69.701C74.414 69.8235 74.6592 69.946 74.7818 70.0685C75.2721 70.436 75.5173 71.171 75.5173 72.2735V72.5185C75.5173 73.621 75.2721 74.4784 74.6592 74.9684C74.1688 75.4584 73.188 75.7034 71.9621 75.7034C70.8588 75.5809 69.878 75.3359 69.3877 74.7234Z" fill="#0053A0"/>
<path d="M40.5783 92.3631H39.5976H38.6168V81.2158H40.2105H41.8042L43.5205 89.6681L45.2368 81.2158H46.8306H48.6695V92.3631H47.6887H46.708V83.0533L44.7465 92.3631H43.6431H42.5398L40.5783 83.0533V92.3631Z" fill="#0053A0"/>
<path d="M52.8376 81.3383H54.1862H55.5347L58.1091 92.4856H57.0058H55.9025L55.4121 90.1581H52.9602L52.4699 92.4856H51.3665H50.2632L52.8376 81.3383ZM53.2054 88.3206H55.0443L54.1862 83.2983L53.2054 88.3206Z" fill="#0053A0"/>
<path d="M59.7029 92.3631V81.2158H60.8062H61.9096V90.6481H64.1162V81.2158H65.2196H66.3229V90.6481H68.5296V81.2158H69.6329H70.7363V92.3631H59.7029Z" fill="#0053A0"/>
<path d="M76.0077 92.3631H74.5365H73.0654V81.2158H74.0462H75.0269V87.9531C75.0269 88.4431 75.0269 89.0556 75.0269 89.6681C75.0269 90.2806 75.0269 90.7706 75.0269 90.8931C75.0269 90.6481 75.1495 90.2806 75.2721 89.6681C75.3947 89.0556 75.5173 88.4431 75.6399 87.9531L76.9884 81.2158H78.4595H79.9306V92.3631H78.9499H77.9692V85.6257C77.9692 85.1357 77.9692 84.5232 77.9692 83.9107C77.9692 83.2983 77.9692 82.8083 77.9692 82.6858C77.9692 82.9308 77.8466 83.2983 77.724 83.9107C77.6014 84.5232 77.4788 85.1357 77.3562 85.6257L76.0077 92.3631Z" fill="#0053A0"/>
<path d="M82.0146 81.3383H83.118H84.2213V85.8707H86.3054V81.3383H87.4087H88.5121V92.4856H87.4087H86.3054V87.5857H84.2213V92.4856H83.118H82.0146V81.3383Z" fill="#0053A0"/>
<path d="M91.5771 91.7506C91.0867 91.1381 90.8416 90.1581 90.8416 88.8106V84.2782C90.8416 83.2982 91.0867 82.4408 91.6997 81.9508C92.3127 81.4608 93.1708 81.2158 94.2742 81.2158C95.3775 81.2158 96.2356 81.4608 96.8486 81.9508C97.4616 82.4408 97.7068 83.2982 97.7068 84.2782V88.8106C97.7068 90.1581 97.4616 91.1381 96.9712 91.7506C96.4808 92.3631 95.5001 92.6081 94.2742 92.6081C92.9256 92.6081 92.0675 92.2406 91.5771 91.7506ZM95.1323 90.5256C95.2549 90.2806 95.3775 89.6681 95.3775 88.9331V84.4007C95.3775 83.9107 95.2549 83.5432 95.1323 83.2983C94.8871 83.0533 94.6419 82.9308 94.2742 82.9308C93.9064 82.9308 93.5386 83.0533 93.416 83.2983C93.1708 83.5432 93.1708 83.9107 93.1708 84.4007V88.9331C93.1708 89.6681 93.2934 90.1581 93.416 90.5256C93.5386 90.7706 93.9064 91.0156 94.2742 91.0156C94.6419 90.8931 95.0097 90.7706 95.1323 90.5256Z" fill="#0053A0"/>
<path d="M106.288 88.6881V89.0556C106.288 90.4031 106.043 91.2606 105.553 91.8731C105.062 92.4856 104.204 92.7305 102.978 92.7305C101.752 92.7305 100.772 92.4856 100.281 91.8731C99.7908 91.2606 99.5457 90.2806 99.5457 88.8106V85.3807C99.5457 83.9107 99.7908 82.9308 100.281 82.3183C100.772 81.7058 101.752 81.4608 102.978 81.4608C104.082 81.4608 104.94 81.7058 105.43 82.3183C105.92 82.8083 106.166 83.6657 106.166 84.6457V84.8907V85.2582H103.836V84.8907C103.836 84.2782 103.714 83.9107 103.591 83.5432C103.469 83.2982 103.223 83.0532 102.856 83.0532C102.488 83.0532 102.12 83.1757 101.875 83.5432C101.63 83.9107 101.63 84.4007 101.63 85.1357V88.5656C101.63 89.5456 101.752 90.1581 101.875 90.5256C101.998 90.8931 102.365 91.1381 102.856 91.1381C103.223 91.1381 103.469 91.0156 103.591 90.6481C103.714 90.2806 103.836 89.7906 103.836 89.1781V88.8106H106.288V88.6881Z" fill="#0053A0"/>
<path d="M109.843 82.9308H107.514V82.0733V81.2158H114.625V82.0733V82.9308H112.295V92.3631H111.192H110.089V82.9308H109.843Z" fill="#0053A0"/>
<path d="M115.973 81.3383H117.076H119.283C120.509 81.3383 121.367 81.5833 121.858 82.0733C122.348 82.5633 122.593 83.4207 122.593 84.6457C122.593 85.9932 122.348 86.8507 121.858 87.3407C121.367 87.8307 120.386 88.0756 118.793 88.0756H118.18V92.4856H117.076H115.973V81.3383ZM118.302 86.3607H118.915C119.528 86.3607 119.896 86.2382 120.141 85.9932C120.386 85.7482 120.386 85.2582 120.386 84.6457C120.386 84.0332 120.264 83.5432 120.019 83.2983C119.774 83.0533 119.406 82.9308 118.793 82.9308H118.18V86.3607H118.302Z" fill="#0053A0"/>
<path d="M125.167 91.7506C124.677 91.1381 124.432 90.1581 124.432 88.8106V84.2782C124.432 83.2982 124.677 82.4408 125.29 81.9508C125.903 81.4608 126.761 81.2158 127.864 81.2158C128.968 81.2158 129.826 81.4608 130.439 81.9508C131.052 82.4408 131.297 83.2982 131.297 84.2782V88.8106C131.297 90.1581 131.052 91.1381 130.562 91.7506C130.071 92.3631 129.09 92.6081 127.864 92.6081C126.516 92.6081 125.658 92.2406 125.167 91.7506ZM128.723 90.5256C128.845 90.2806 128.968 89.6681 128.968 88.9331V84.4007C128.968 83.9107 128.845 83.5432 128.723 83.2983C128.477 83.0533 128.232 82.9308 127.864 82.9308C127.497 82.9308 127.252 83.0533 127.006 83.2983C126.761 83.5432 126.761 83.9107 126.761 84.4007V88.9331C126.761 89.6681 126.884 90.1581 127.006 90.5256C127.129 90.7706 127.497 91.0156 127.864 91.0156C128.232 90.8931 128.6 90.7706 128.723 90.5256Z" fill="#0053A0"/>
<path d="M136.324 92.3631H134.852H133.381V81.2158H134.362H135.343V87.9531C135.343 88.4431 135.343 89.0556 135.343 89.6681C135.343 90.2806 135.343 90.7706 135.343 90.8931C135.343 90.6481 135.465 90.2806 135.588 89.6681C135.711 89.0556 135.833 88.4431 135.956 87.9531L137.304 81.2158H138.775H140.247V92.3631H139.266H138.162V85.6257C138.162 85.1357 138.162 84.5232 138.162 83.9107C138.162 83.2983 138.162 82.8083 138.162 82.6858C138.162 82.9308 138.04 83.2983 137.917 83.9107C137.795 84.5232 137.672 85.1357 137.55 85.6257L136.324 92.3631Z" fill="#0053A0"/>
<path d="M144.047 82.9308H141.718V82.0733V81.2158H148.828V82.0733V82.9308H146.499V92.3631H145.395H144.292V82.9308H144.047Z" fill="#0053A0"/>
<path d="M150.299 92.3631V81.2158H155.816V82.0733V82.9308H152.506V85.8707H155.693V86.7282V87.5857H152.506V90.7706H155.816V91.6281V92.4856H150.299V92.3631Z" fill="#0053A0"/>
<path d="M162.191 82.9308H160.352V89.5456C160.352 90.6481 160.107 91.3831 159.739 91.8731C159.248 92.3631 158.635 92.6081 157.532 92.6081H157.164V90.6481H157.409C157.655 90.6481 157.9 90.5256 158.022 90.4031C158.145 90.2806 158.145 89.9131 158.145 89.5456V81.2158H164.52V92.3631H163.417H162.313V82.9308H162.191Z" fill="#0053A0"/>
<path d="M166.604 92.3631V81.2158H172.121V82.0733V82.9308H168.811V85.8707H171.998V86.7282V87.5857H168.811V90.7706H172.121V91.6281V92.4856H166.604V92.3631Z" fill="#0053A0"/>
<path d="M177.024 92.3631H175.553H174.082V81.2158H175.063H176.044V87.9532C176.044 88.4432 176.044 89.0557 176.044 89.6681C176.044 90.2806 176.044 90.7706 176.044 90.8931C176.044 90.6481 176.166 90.2806 176.289 89.6681C176.411 89.0557 176.534 88.4432 176.656 87.9532L178.005 81.2158H179.476H180.947V92.3631H179.844H178.863V85.6257C178.863 85.1357 178.863 84.5233 178.863 83.9108C178.863 83.2983 178.863 82.8083 178.863 82.6858C178.863 82.9308 178.741 83.2983 178.618 83.9108C178.495 84.5233 178.373 85.1357 178.25 85.6257L177.024 92.3631ZM177.392 80.4808C176.656 80.4808 176.044 80.2358 175.676 79.8683C175.308 79.5009 175.063 78.8884 175.063 78.2759H176.534C176.534 78.6434 176.534 79.0109 176.656 79.1334C176.779 79.2559 177.024 79.3784 177.269 79.3784C177.515 79.3784 177.76 79.2559 177.882 79.1334C178.005 79.0109 178.005 78.6434 178.005 78.2759H179.476C179.476 79.0109 179.231 79.5009 178.863 79.8683C178.741 80.2358 178.128 80.4808 177.392 80.4808Z" fill="#0053A0"/>
<path d="M38.7394 98.3654H39.8427H42.0494C43.2753 98.3654 44.1335 98.6104 44.6238 99.1004C45.1142 99.5904 45.3594 100.448 45.3594 101.673C45.3594 103.02 45.1142 103.878 44.6238 104.368C44.1335 104.858 43.1527 105.103 41.559 105.103H40.9461V109.513H39.8427H38.7394V98.3654ZM41.0686 103.388H41.6816C42.2946 103.388 42.6624 103.265 42.9075 103.02C43.1527 102.775 43.1527 102.285 43.1527 101.673C43.1527 101.06 43.0301 100.57 42.7849 100.325C42.5398 100.08 42.172 99.9579 41.559 99.9579H40.9461V103.388H41.0686Z" fill="#0053A0"/>
<path d="M47.9339 108.778C47.4436 108.165 47.1984 107.185 47.1984 105.838V101.305C47.1984 100.325 47.4436 99.4679 48.0565 98.9779C48.6695 98.4879 49.5276 98.243 50.631 98.243C51.7343 98.243 52.5925 98.4879 53.2054 98.9779C53.8184 99.4679 54.0636 100.203 54.0636 101.305V105.838C54.0636 107.185 53.8184 108.165 53.328 108.778C52.8376 109.39 51.8569 109.635 50.631 109.635C49.2824 109.635 48.4243 109.268 47.9339 108.778ZM51.4891 107.43C51.6117 107.185 51.7343 106.573 51.7343 105.838V101.305C51.7343 100.815 51.6117 100.448 51.4891 100.203C51.2439 99.9579 50.9987 99.8354 50.631 99.8354C50.2632 99.8354 49.8954 99.9579 49.7728 100.203C49.5276 100.448 49.5276 100.815 49.5276 101.305V105.838C49.5276 106.573 49.6502 107.063 49.7728 107.43C49.8954 107.675 50.2632 107.92 50.631 107.92C50.9987 107.92 51.2439 107.798 51.4891 107.43Z" fill="#0053A0"/>
<path d="M62.6451 105.593V105.96C62.6451 107.308 62.3999 108.165 61.9095 108.778C61.4192 109.39 60.561 109.635 59.3351 109.635C58.1091 109.635 57.1284 109.39 56.638 108.778C56.1477 108.165 55.9025 107.185 55.9025 105.715V102.285C55.9025 100.815 56.1477 99.7129 56.638 99.2229C57.1284 98.6104 58.1091 98.3654 59.3351 98.3654C60.4384 98.3654 61.2966 98.6104 61.7869 99.2229C62.2773 99.7129 62.5225 100.57 62.5225 101.55V101.795V102.163H60.1932V101.795C60.1932 101.183 60.1932 100.815 59.948 100.448C59.8254 100.203 59.5803 99.9579 59.2125 99.9579C58.8447 99.9579 58.4769 100.08 58.3543 100.448C58.1091 100.815 58.1091 101.305 58.1091 102.04V105.47C58.1091 106.45 58.2317 107.063 58.3543 107.43C58.4769 107.798 58.8447 108.043 59.3351 108.043C59.7028 108.043 59.948 107.92 60.0706 107.553C60.1932 107.185 60.3158 106.695 60.3158 106.083V105.715H62.6451V105.593Z" fill="#0053A0"/>
<path d="M70.9814 105.593V105.96C70.9814 107.308 70.7362 108.165 70.2458 108.778C69.7555 109.39 68.8973 109.635 67.6714 109.635C66.4454 109.635 65.4647 109.39 64.9743 108.778C64.484 108.165 64.2388 107.185 64.2388 105.715V102.285C64.2388 100.815 64.484 99.7129 64.9743 99.2229C65.4647 98.6104 66.4454 98.3654 67.6714 98.3654C68.7747 98.3654 69.6329 98.6104 70.1232 99.2229C70.6136 99.7129 70.8588 100.57 70.8588 101.55V101.795V102.163H68.5295V101.795C68.5295 101.183 68.4069 100.815 68.2843 100.448C68.1618 100.203 67.9166 99.9579 67.5488 99.9579C67.181 99.9579 66.8132 100.08 66.568 100.448C66.3229 100.815 66.3229 101.305 66.3229 102.04V105.47C66.3229 106.45 66.4454 107.063 66.568 107.43C66.6906 107.798 67.0584 108.043 67.5488 108.043C67.9166 108.043 68.1618 107.92 68.2843 107.553C68.4069 107.185 68.5295 106.695 68.5295 106.083V105.715H70.9814V105.593Z" fill="#0053A0"/>
<path d="M75.7625 109.39H74.2914H72.8203V98.243H73.8011H74.7818V104.98C74.7818 105.47 74.7818 106.083 74.7818 106.695C74.7818 107.308 74.7818 107.798 74.7818 107.92C74.7818 107.675 74.9044 107.308 75.027 106.695C75.1496 106.083 75.2722 105.47 75.3948 104.98L76.7433 98.243H78.2144H79.6855V109.39H78.7048H77.724V102.653C77.724 102.163 77.724 101.55 77.724 100.938C77.724 100.325 77.724 99.8354 77.724 99.7129C77.724 99.9579 77.6014 100.325 77.4789 100.938C77.3563 101.55 77.2337 102.163 77.1111 102.653L75.7625 109.39Z" fill="#0053A0"/>
<path d="M84.7118 109.39H83.2406H81.7695V98.243H82.7503H83.731V104.98C83.731 105.47 83.731 106.083 83.731 106.695C83.731 107.308 83.731 107.798 83.731 107.92C83.731 107.675 83.8536 107.308 83.9762 106.695C84.0988 106.083 84.2214 105.47 84.344 104.98L85.6925 98.243H87.1636H88.6347V109.39H87.654H86.6733V102.653C86.6733 102.163 86.6733 101.55 86.6733 100.938C86.6733 100.325 86.6733 99.8354 86.6733 99.7129C86.6733 99.9579 86.5507 100.325 86.4281 100.938C86.3055 101.55 86.1829 102.163 86.0603 102.653L84.7118 109.39Z" fill="#0053A0"/>
<path d="M97.9518 96.1605C97.9518 96.283 97.9518 96.4055 97.9518 96.528C97.9518 118.7 80.0533 136.585 57.8639 136.585C35.6746 136.585 17.776 118.7 17.776 96.528C17.776 74.3559 35.6746 56.4713 57.8639 56.4713C73.3106 56.4713 86.6733 65.1686 93.4159 78.0309H112.295L110.824 73.866C108.495 73.0085 105.185 73.376 102.365 73.866C101.139 71.5385 99.7907 69.3336 98.3196 67.2511C99.9133 65.1686 101.384 62.4737 101.997 59.7788L98.4422 55.6138C95.9904 55.7363 93.0481 57.2063 90.5963 58.7988C88.3896 56.8388 85.9377 55.1239 83.3633 53.6539C83.9762 51.0814 84.344 48.019 83.7311 45.3241L78.8273 42.9966C76.6207 44.0991 74.5366 46.6715 72.9429 48.999C70.0006 48.019 66.8132 47.4065 63.6258 47.039C63.1354 44.4666 62.2773 41.5266 60.561 39.1992L55.0443 39.0767C53.4506 41.0366 52.5924 44.2216 52.1021 47.039C49.1598 47.4065 46.2176 48.019 43.5205 48.8765C42.0494 46.6715 40.0879 44.3441 37.6361 42.8741L32.242 44.9566C31.5064 47.4065 31.9968 50.7139 32.7323 53.5314C30.1579 55.0014 27.8286 56.7163 25.622 58.5538C23.4153 57.0838 20.5956 55.7363 17.776 55.3688L13.853 59.2888C14.0982 61.8612 15.9371 64.6787 17.6534 67.0061C15.9371 69.3336 14.466 71.7835 13.1175 74.3559C10.543 73.866 7.35559 73.7435 4.65854 74.4784L2.57445 79.6233C3.80039 81.8283 6.49743 83.7883 9.07189 85.1357C8.45892 87.5857 8.09114 90.1581 7.84596 92.7306C5.2715 93.3431 2.32927 94.323 0 96.038V101.55C1.96149 103.143 5.2715 103.878 8.09114 104.245C8.45892 106.695 8.9493 109.023 9.68485 111.35C7.47818 112.82 5.14891 114.903 3.67779 117.23L5.76187 122.375C8.21374 123.11 11.5237 122.62 14.3434 121.885C15.8145 124.335 17.4082 126.662 19.2471 128.867C17.776 131.072 16.4275 133.89 16.0597 136.707L19.9827 140.627C22.4345 140.382 25.3768 138.667 27.706 136.83C29.6675 138.3 31.629 139.647 33.8357 140.75C33.3453 143.322 33.1001 146.384 33.7131 149.202L38.7394 151.407C40.9461 150.182 42.9076 147.609 44.5013 145.159C46.8305 145.772 49.405 146.262 51.8569 146.629C52.3472 149.202 53.2054 152.142 54.9217 154.469L60.4384 154.592C62.0321 152.632 62.8902 149.569 63.3806 146.629C65.9551 146.384 68.4069 145.894 70.8588 145.282C72.3299 147.487 74.1688 149.937 76.4981 151.407L81.647 149.569C82.3825 147.242 82.0147 143.934 81.4018 141.117C83.2407 140.137 84.957 139.035 86.5507 137.932C88.6348 139.525 91.2092 141.117 94.0289 141.73L98.197 138.177C98.0745 135.727 96.6033 132.787 95.1322 130.337C96.9711 128.255 98.6874 125.927 100.159 123.6C102.733 124.212 105.675 124.702 108.495 124.212L110.947 119.313C109.843 117.108 107.392 114.903 105.062 113.31C105.92 110.983 106.533 108.41 106.901 105.96C109.476 105.593 112.418 104.858 114.747 103.388L115.237 97.8755C114.747 97.508 114.257 97.018 113.644 96.773H97.9518V96.1605Z" fill="#0053A0"/>
<path d="M111.437 29.0319V22.662H114.992V23.152V23.642H112.786V25.112H113.276C114.134 25.112 114.624 25.2345 114.992 25.4795C115.237 25.7245 115.483 26.2145 115.483 26.9495C115.483 27.8069 115.36 28.2969 114.992 28.5419C114.747 28.7869 114.134 28.9094 113.276 28.9094H112.295H111.437V29.0319ZM112.663 28.0519H113.031C113.399 28.0519 113.644 27.9294 113.766 27.8069C113.889 27.6844 114.011 27.4394 114.011 26.9495C114.011 26.582 114.011 26.337 113.889 26.2145C113.766 26.092 113.521 25.9695 113.153 25.9695H112.663V28.0519Z" fill="#E30613"/>
<path d="M117.444 22.7845H118.18H118.915L120.386 29.1544H119.773H119.16L118.915 27.8069H117.567L117.321 29.0319H116.708H116.095L117.444 22.7845ZM117.689 26.7045H118.793L118.302 23.887L117.689 26.7045Z" fill="#E30613"/>
<path d="M121.367 29.0319V22.662H121.98H122.593V28.0519H123.819V22.662H124.432H125.045V28.0519H126.271V22.662H126.884H127.497V29.0319H121.367Z" fill="#E30613"/>
<path d="M129.09 22.7845H129.703H130.316V25.2345C130.684 25.2345 130.929 25.112 131.174 24.9895C131.297 24.867 131.42 24.622 131.42 24.2545V24.0095C131.42 23.5195 131.542 23.2745 131.787 23.0295C132.033 22.7845 132.278 22.7845 132.768 22.7845H133.013V23.887H132.891C132.768 23.887 132.768 23.887 132.646 24.0095C132.646 24.132 132.523 24.132 132.523 24.377V24.4995C132.523 24.9895 132.4 25.357 132.033 25.602C131.91 25.602 131.91 25.7245 131.787 25.7245C132.033 25.7245 132.155 25.847 132.278 25.9695C132.646 26.2145 132.768 26.582 132.891 27.1945L133.013 28.2969C133.013 28.5419 133.013 28.7869 133.136 28.9094C133.136 29.0319 133.258 29.1544 133.258 29.3994H132.646H132.033C132.033 29.2769 131.91 29.1544 131.91 29.0319C131.91 28.9094 131.91 28.6644 131.787 28.5419L131.665 27.5619C131.665 27.1945 131.542 26.9495 131.42 26.827C131.297 26.7045 131.052 26.582 130.684 26.582H130.439V29.0319H129.826H129.213V22.7845H129.09Z" fill="#E30613"/>
<path d="M134.362 28.6644C134.117 28.2969 133.872 27.8069 133.872 26.9495V24.377C133.872 23.7645 133.994 23.397 134.362 23.0295C134.73 22.7845 135.22 22.5396 135.833 22.5396C136.446 22.5396 136.936 22.662 137.304 23.0295C137.672 23.2745 137.795 23.7645 137.795 24.377V26.9495C137.795 27.6844 137.672 28.2969 137.304 28.6644C137.059 29.0319 136.446 29.1544 135.833 29.1544C135.098 29.1544 134.607 29.0319 134.362 28.6644ZM136.446 27.9294C136.569 27.8069 136.569 27.4394 136.569 27.072V24.4995C136.569 24.2545 136.569 24.0095 136.446 23.887C136.323 23.7645 136.201 23.642 135.956 23.642C135.71 23.642 135.588 23.7645 135.465 23.887C135.343 24.0095 135.343 24.2545 135.343 24.4995V27.072C135.343 27.4394 135.343 27.8069 135.465 27.9294C135.588 28.0519 135.71 28.1744 135.956 28.1744C136.078 28.1744 136.323 28.1744 136.446 27.9294Z" fill="#E30613"/>
<path d="M139.021 22.7845H139.633H140.859C141.595 22.7845 142.085 22.907 142.331 23.2745C142.576 23.5195 142.821 24.0095 142.821 24.7445C142.821 25.4795 142.698 25.9695 142.331 26.337C142.085 26.582 141.472 26.7045 140.614 26.7045H140.246V29.0319H139.633H139.021V22.7845ZM140.246 25.602H140.614C140.982 25.602 141.227 25.4795 141.35 25.357C141.472 25.2345 141.472 24.9895 141.472 24.622C141.472 24.2545 141.472 24.0095 141.35 23.887C141.227 23.7645 140.982 23.642 140.614 23.642H140.246V25.602Z" fill="#E30613"/>
<path d="M144.782 23.642H143.434V23.152V22.662H147.479V23.152V23.642H146.131V29.0319H145.518H144.905V23.642H144.782Z" fill="#E30613"/>
<path d="M148.705 28.6644C148.46 28.2969 148.215 27.8069 148.215 26.9495V24.377C148.215 23.7645 148.337 23.397 148.705 23.0295C149.073 22.7845 149.563 22.5396 150.176 22.5396C150.789 22.5396 151.28 22.662 151.647 23.0295C152.015 23.2745 152.138 23.7645 152.138 24.377V26.9495C152.138 27.6844 152.015 28.2969 151.647 28.6644C151.402 29.0319 150.789 29.1544 150.176 29.1544C149.563 29.1544 149.073 29.0319 148.705 28.6644ZM150.789 27.9294C150.912 27.8069 150.912 27.4394 150.912 27.072V24.4995C150.912 24.2545 150.912 24.0095 150.789 23.887C150.667 23.7645 150.544 23.642 150.299 23.642C150.054 23.642 149.931 23.7645 149.809 23.887C149.686 24.0095 149.686 24.2545 149.686 24.4995V27.072C149.686 27.4394 149.686 27.8069 149.809 27.9294C149.931 28.0519 150.054 28.1744 150.299 28.1744C150.544 28.1744 150.667 28.1744 150.789 27.9294Z" fill="#E30613"/>
<path d="M157.164 26.9495V27.1945C157.164 27.9294 157.042 28.4194 156.796 28.7869C156.551 29.1544 156.061 29.2769 155.325 29.2769C154.59 29.2769 154.099 29.1544 153.732 28.7869C153.486 28.4194 153.241 27.8069 153.241 27.072V25.112C153.241 24.2545 153.364 23.642 153.732 23.397C153.977 23.0295 154.59 22.907 155.325 22.907C155.938 22.907 156.429 23.0295 156.674 23.397C156.919 23.642 157.164 24.132 157.042 24.7445V24.867V25.112H155.693V24.867C155.693 24.4995 155.693 24.2545 155.57 24.132C155.448 24.0095 155.325 23.887 155.203 23.887C154.958 23.887 154.835 24.0095 154.712 24.132C154.59 24.377 154.59 24.622 154.59 24.9895V26.9495C154.59 27.4394 154.59 27.9294 154.712 28.0519C154.835 28.2969 154.958 28.4194 155.203 28.4194C155.448 28.4194 155.57 28.2969 155.693 28.1744C155.816 27.9294 155.816 27.6844 155.816 27.3169V27.072H157.164V26.9495Z" fill="#E30613"/>
<path d="M159.248 23.642H157.9V23.152V22.662H161.945V23.152V23.642H160.597V29.0319H159.984H159.371V23.642H159.248Z" fill="#E30613"/>
<path d="M163.907 22.7845H164.642H165.378L166.849 29.1544H166.236H165.623L165.378 27.8069H164.029L163.784 29.1544H163.171H162.558L163.907 22.7845ZM164.152 26.7045H165.133L164.642 23.887L164.152 26.7045Z" fill="#E30613"/>
<path d="M167.83 22.7845H168.443H169.056V25.357H170.282V22.7845H170.895H171.508V29.0319H170.895H170.282V26.2145H169.056V29.0319H168.443H167.83V22.7845Z" fill="#E30613"/>
<path d="M176.657 26.9495V27.1945C176.657 27.9294 176.534 28.4194 176.289 28.7869C176.044 29.1544 175.553 29.2769 174.818 29.2769C174.082 29.2769 173.592 29.1544 173.224 28.7869C172.979 28.4194 172.734 27.8069 172.734 27.072V25.112C172.734 24.2545 172.856 23.642 173.224 23.397C173.469 23.0295 174.082 22.907 174.818 22.907C175.431 22.907 175.921 23.0295 176.166 23.397C176.411 23.642 176.657 24.132 176.534 24.7445V24.867V25.112H175.186V24.867C175.186 24.4995 175.186 24.2545 175.063 24.132C174.94 24.0095 174.818 23.887 174.695 23.887C174.45 23.887 174.327 24.0095 174.205 24.132C174.082 24.377 174.082 24.622 174.082 24.9895V26.9495C174.082 27.4394 174.082 27.9294 174.205 28.0519C174.327 28.2969 174.45 28.4194 174.695 28.4194C174.94 28.4194 175.063 28.2969 175.186 28.1744C175.308 27.9294 175.308 27.6844 175.308 27.3169V27.072H176.657V26.9495Z" fill="#E30613"/>
<path d="M177.76 22.7845H178.373H178.986V25.2345C179.354 25.2345 179.599 25.112 179.844 24.9895C179.967 24.867 180.089 24.622 180.089 24.2545V24.0095C180.089 23.5195 180.212 23.2745 180.457 23.0295C180.702 22.7845 180.947 22.7845 181.438 22.7845H181.683V23.887H181.56C181.438 23.887 181.438 23.887 181.315 24.0095C181.315 24.132 181.193 24.132 181.193 24.377V24.4995C181.193 24.9895 181.07 25.357 180.702 25.602C180.58 25.602 180.58 25.7245 180.457 25.7245C180.702 25.7245 180.825 25.847 180.947 25.9695C181.315 26.2145 181.438 26.582 181.56 27.1945L181.683 28.2969C181.683 28.5419 181.683 28.7869 181.806 28.9094C181.806 29.0319 181.928 29.1544 181.928 29.3994H181.315H180.702C180.702 29.2769 180.58 29.1544 180.58 29.0319C180.58 28.9094 180.58 28.6644 180.457 28.5419L180.334 27.5619C180.334 27.1945 180.212 26.9495 180.089 26.827C179.967 26.7045 179.722 26.582 179.354 26.582H179.109V29.0319H178.496H177.883V22.7845H177.76Z" fill="#E30613"/>
<path d="M183.031 28.6644C182.786 28.2969 182.541 27.8069 182.541 26.9495V24.377C182.541 23.7645 182.664 23.397 183.031 23.0295C183.399 22.7845 183.89 22.5396 184.503 22.5396C185.115 22.5396 185.606 22.662 185.974 23.0295C186.341 23.2745 186.464 23.7645 186.464 24.377V26.9495C186.464 27.6844 186.341 28.2969 185.974 28.6644C185.728 29.0319 185.115 29.1544 184.503 29.1544C183.767 29.1544 183.277 29.0319 183.031 28.6644ZM185.115 27.9294C185.238 27.8069 185.238 27.4394 185.238 27.072V24.4995C185.238 24.2545 185.238 24.0095 185.115 23.887C184.993 23.7645 184.87 23.642 184.625 23.642C184.38 23.642 184.257 23.7645 184.135 23.887C184.012 24.0095 184.012 24.2545 184.012 24.4995V27.072C184.012 27.4394 184.012 27.8069 184.135 27.9294C184.257 28.0519 184.38 28.1744 184.625 28.1744C184.748 28.1744 184.993 28.1744 185.115 27.9294Z" fill="#E30613"/>
<path d="M187.69 29.0319V22.662H190.877V23.152V23.642H189.038V25.357H190.877V25.847V26.337H189.038V28.1744H191V28.6644V29.0319H187.69Z" fill="#E30613"/>
<path d="M111.314 30.7469H111.927H113.153C113.889 30.7469 114.379 30.8694 114.624 31.2369C114.87 31.4819 115.115 31.9719 115.115 32.7068C115.115 33.4418 114.992 33.9318 114.624 34.2993C114.379 34.5443 113.766 34.6668 112.908 34.6668H112.54V37.2392H111.927H111.314V30.7469ZM112.663 33.5643H113.031C113.399 33.5643 113.644 33.4418 113.766 33.3193C113.889 33.1968 113.889 32.9518 113.889 32.5843C113.889 32.2169 113.766 31.9719 113.766 31.8494C113.644 31.7269 113.399 31.6044 113.031 31.6044H112.663V33.5643Z" fill="#E30613"/>
<path d="M116.095 36.9942V30.6243H119.283V31.1143V31.6043H117.444V33.3193H119.283V33.8093V34.2993H117.444V36.1367H119.405V36.6267V37.1167H116.095V36.9942Z" fill="#E30613"/>
<path d="M121.735 36.9942H120.999H120.386V30.6243H123.696V31.1143V31.6043H121.735V36.9942Z" fill="#E30613"/>
<path d="M126.393 36.9943H125.535H124.677V30.6244H125.167H125.658V34.4218C125.658 34.6668 125.658 35.0343 125.658 35.4018C125.658 35.7693 125.658 36.0143 125.658 36.1368C125.658 36.0143 125.658 35.7693 125.78 35.4018C125.903 35.0343 125.903 34.6668 126.026 34.4218L126.761 30.5019H127.619H128.477V36.8718H127.987H127.497V33.0743C127.497 32.8293 127.497 32.4619 127.497 32.0944C127.497 31.7269 127.497 31.4819 127.497 31.3594C127.497 31.4819 127.497 31.7269 127.374 32.0944C127.251 32.4619 127.251 32.8293 127.129 33.0743L126.393 36.9943Z" fill="#E30613"/>
<path d="M130.194 36.6268C129.949 36.2593 129.703 35.7693 129.703 34.9118V32.3394C129.703 31.7269 129.826 31.3594 130.194 30.9919C130.562 30.7469 131.052 30.5019 131.665 30.5019C132.278 30.5019 132.768 30.6244 133.136 30.9919C133.504 31.2369 133.626 31.7269 133.626 32.3394V34.9118C133.626 35.6468 133.504 36.2593 133.136 36.6268C132.891 36.9943 132.278 37.1168 131.665 37.1168C131.052 37.1168 130.439 36.9943 130.194 36.6268ZM132.278 35.8918C132.4 35.7693 132.4 35.4018 132.4 35.0343V32.4618C132.4 32.2169 132.4 31.9719 132.278 31.8494C132.155 31.7269 132.033 31.6044 131.787 31.6044C131.542 31.6044 131.42 31.7269 131.297 31.8494C131.174 31.9719 131.174 32.2169 131.174 32.4618V35.0343C131.174 35.4018 131.174 35.7693 131.297 35.8918C131.42 36.0143 131.542 36.1368 131.787 36.1368C132.033 36.1368 132.155 36.1368 132.278 35.8918Z" fill="#E30613"/>
<path d="M134.852 30.7469H135.465H136.078V33.3193H137.304V30.7469H137.917H138.53V37.1168H137.917H137.304V34.2993H136.078V37.1168H135.465H134.852V30.7469Z" fill="#E30613"/>
<path d="M141.105 30.7469H141.84H142.576L144.047 37.1168H143.434H142.821L142.576 35.7693H141.227L140.982 37.1168H140.369H139.756L141.105 30.7469ZM141.35 34.6668H142.331L141.84 31.8494L141.35 34.6668Z" fill="#E30613"/>
<path d="M147.602 31.6043H146.499V35.4017C146.499 36.0142 146.376 36.3817 146.131 36.7492C145.886 36.9942 145.518 37.1167 144.905 37.1167H144.66V36.0142H144.782C144.905 36.0142 145.027 36.0142 145.15 35.8917C145.273 35.7692 145.273 35.6467 145.273 35.4017V30.6243H148.95V36.9942H148.337H147.724V31.6043H147.602Z" fill="#E30613"/>
<path d="M150.177 30.7469H150.789H151.402V33.1968H151.893C152.751 33.1968 153.241 33.3193 153.609 33.5643C153.854 33.8093 154.099 34.2993 154.099 35.0343C154.099 35.8918 153.977 36.3818 153.609 36.6268C153.364 36.8718 152.751 36.9943 151.893 36.9943H150.912H150.299V30.7469H150.177ZM151.402 36.0143H151.77C152.138 36.0143 152.383 35.8918 152.506 35.7693C152.628 35.6468 152.751 35.4018 152.751 34.9118C152.751 34.5443 152.751 34.2993 152.628 34.1768C152.506 34.0543 152.261 33.9318 151.893 33.9318H151.402V36.0143Z" fill="#E30613"/>
<path d="M155.08 30.7469H155.693H156.306V33.3193H157.532V30.7469H158.145H158.758V37.1168H158.145H157.532V34.2993H156.306V37.1168H155.693H155.08V30.7469Z" fill="#E30613"/>
<path d="M160.597 36.6268C160.352 36.2593 160.106 35.7693 160.106 34.9118V32.3394C160.106 31.7269 160.229 31.3594 160.597 30.9919C160.965 30.7469 161.455 30.5019 162.068 30.5019C162.681 30.5019 163.171 30.6244 163.539 30.9919C163.907 31.2369 164.029 31.7269 164.029 32.3394V34.9118C164.029 35.6468 163.907 36.2593 163.539 36.6268C163.294 36.9943 162.681 37.1168 162.068 37.1168C161.332 37.1168 160.842 36.9943 160.597 36.6268ZM162.558 35.8918C162.681 35.7693 162.681 35.4018 162.681 35.0343V32.4618C162.681 32.2169 162.681 31.9719 162.558 31.8494C162.436 31.7269 162.313 31.6044 162.068 31.6044C161.823 31.6044 161.7 31.7269 161.578 31.8494C161.455 31.9719 161.455 32.2169 161.455 32.4618V35.0343C161.455 35.4018 161.455 35.7693 161.578 35.8918C161.7 36.0143 161.823 36.1368 162.068 36.1368C162.313 36.1368 162.558 36.1368 162.558 35.8918Z" fill="#E30613"/>
<path d="M165.255 36.9942V30.6243H168.443V31.1143V31.6043H166.604V33.3193H168.443V33.8093V34.2993H166.604V36.1367H168.565V36.6267V37.1167H165.255V36.9942Z" fill="#E30613"/>
<path d="M111.805 44.5891C111.56 44.2216 111.314 43.7316 111.314 42.8741V40.3017C111.314 39.6892 111.437 39.3217 111.805 38.9542C112.173 38.7092 112.663 38.4642 113.276 38.4642C113.889 38.4642 114.379 38.5867 114.747 38.9542C115.115 39.1992 115.237 39.6892 115.237 40.3017V42.8741C115.237 43.6091 115.115 44.2216 114.747 44.5891C114.502 44.9566 113.889 45.0791 113.276 45.0791C112.663 45.0791 112.05 44.9566 111.805 44.5891ZM113.889 43.8541C114.011 43.7316 114.012 43.3641 114.012 42.9966V40.4242C114.012 40.1792 114.011 39.9342 113.889 39.8117C113.766 39.6892 113.644 39.5667 113.399 39.5667C113.153 39.5667 113.031 39.6892 112.908 39.8117C112.786 39.9342 112.786 40.1792 112.786 40.4242V42.9966C112.786 43.3641 112.786 43.7316 112.908 43.8541C113.031 43.9766 113.153 44.0991 113.399 44.0991C113.644 44.0991 113.766 44.0991 113.889 43.8541Z" fill="#E30613"/>
<path d="M117.567 39.5667H116.095V39.0767V38.5867H120.141V39.0767V39.5667H118.793V44.9566H118.18H117.567V39.5667Z" fill="#E30613"/>
<path d="M121.735 38.7092H125.29V44.0991H125.903V46.304H124.677V44.9566H122.103V46.304H120.754V44.0991H121.367C121.367 43.8541 121.49 43.4866 121.49 43.1191C121.612 41.7716 121.735 40.3017 121.735 38.7092ZM124.064 39.5667H122.961C122.961 40.9141 122.838 42.0166 122.716 42.9966C122.716 43.3641 122.593 43.7316 122.593 43.9766H124.064V39.5667Z" fill="#E30613"/>
<path d="M126.639 44.9566V38.5867H129.826V39.0767V39.5667H127.987V41.2816H129.826V41.7716V42.2616H127.987V44.0991H129.949V44.5891V44.9566H126.639Z" fill="#E30613"/>
<path d="M133.504 39.5667H132.4V43.3641C132.4 43.9766 132.278 44.3441 132.033 44.7116C131.787 44.9566 131.42 45.0791 130.807 45.0791H130.562V43.9766H130.684C130.807 43.9766 130.929 43.9766 131.052 43.8541C131.174 43.7316 131.174 43.6091 131.174 43.3641V38.5867H134.852V44.9566H134.239H133.626V39.5667H133.504Z" fill="#E30613"/>
<path d="M135.956 44.9566V38.5867H139.143V39.0767V39.5667H137.304V41.2816H139.143V41.7716V42.2616H137.304V44.0991H139.266V44.5891V44.9566H135.956Z" fill="#E30613"/>
<path d="M140.246 38.7092H140.859H141.472V41.2816H142.698V38.7092H143.311H143.924V44.9566H143.311H142.698V42.1391H141.472V44.9566H140.859H140.246V38.7092Z" fill="#E30613"/>
<path d="M146.989 44.9566H146.131H145.273V38.5867H145.763H146.253V42.5066C146.253 42.7516 146.253 43.1191 146.253 43.4866C146.253 43.8541 146.253 44.0991 146.253 44.2216C146.253 44.0991 146.253 43.8541 146.376 43.4866C146.499 43.1191 146.499 42.7516 146.621 42.5066L147.357 38.5867H148.215H149.073V44.9566H148.583H148.092V41.1591C148.092 40.9142 148.092 40.5467 148.092 40.1792C148.092 39.8117 148.092 39.5667 148.092 39.4442C148.092 39.5667 148.092 39.8117 147.97 40.1792C147.847 40.5467 147.847 40.9142 147.725 41.1591L146.989 44.9566Z" fill="#E30613"/>
<path d="M150.422 44.9566V38.5867H153.609V39.0767V39.5667H151.648V41.2816H153.486V41.7716V42.2616H151.648V44.0991H153.609V44.5891V44.9566H150.422Z" fill="#E30613"/>
<defs>
<linearGradient id="paint0_linear_42_799" x1="19.7374" y1="119.57" x2="65.7936" y2="119.57" gradientUnits="userSpaceOnUse">
<stop stop-color="#AE0F0A"/>
<stop offset="0.6461" stop-color="#E30613"/>
<stop offset="1" stop-color="#E30613"/>
</linearGradient>
<linearGradient id="paint1_linear_42_799" x1="46.3473" y1="126.054" x2="95.252" y2="126.054" gradientUnits="userSpaceOnUse">
<stop stop-color="#AE0F0A"/>
<stop offset="0.6461" stop-color="#E30613"/>
<stop offset="1" stop-color="#E30613"/>
</linearGradient>
<linearGradient id="paint2_linear_42_799" x1="18.5115" y1="113.498" x2="64.5676" y2="113.498" gradientUnits="userSpaceOnUse">
<stop stop-color="#C6C6C6"/>
<stop offset="0.6461" stop-color="white"/>
<stop offset="1" stop-color="white"/>
</linearGradient>
<linearGradient id="paint3_linear_42_799" x1="53.3014" y1="120.537" x2="96.4398" y2="120.537" gradientUnits="userSpaceOnUse">
<stop stop-color="#C6C6C6"/>
<stop offset="0.6461" stop-color="white"/>
<stop offset="1" stop-color="white"/>
</linearGradient>
<linearGradient id="paint4_linear_42_799" x1="21.8427" y1="122.186" x2="59.9106" y2="122.186" gradientUnits="userSpaceOnUse">
<stop stop-color="#123274"/>
<stop offset="0.00562" stop-color="#123274"/>
<stop offset="0.5169" stop-color="#164194"/>
<stop offset="1" stop-color="#164194"/>
</linearGradient>
<linearGradient id="paint5_linear_42_799" x1="50.5876" y1="125.632" x2="90.9014" y2="125.632" gradientUnits="userSpaceOnUse">
<stop stop-color="#123274"/>
<stop offset="0.00562" stop-color="#123274"/>
<stop offset="0.5169" stop-color="#164194"/>
<stop offset="1" stop-color="#164194"/>
</linearGradient>
</defs>
</svg>
