<svg width="32" height="32" viewBox="0 0 32 32" fill="none" xmlns="http://www.w3.org/2000/svg">
<path d="M15.8351 31.6701C24.5805 31.6701 31.6701 24.5805 31.6701 15.8351C31.6701 7.08962 24.5805 0 15.8351 0C7.08962 0 0 7.08962 0 15.8351C0 24.5805 7.08962 31.6701 15.8351 31.6701Z" fill="#DCDCDC"/>
<path d="M5.89731 16.6096C7.74842 15.59 9.81476 14.739 11.7454 13.8836C15.067 12.4826 18.4017 11.1059 21.7701 9.82418C22.4255 9.60578 23.603 9.39221 23.7185 10.3634C23.6553 11.7382 23.3952 13.1049 23.2168 14.4716C22.7639 17.4771 22.2406 20.4723 21.7302 23.4679C21.5544 24.4657 20.3044 24.9822 19.5046 24.3437C17.5825 23.0453 15.6456 21.7596 13.7481 20.4312C13.1265 19.7996 13.7029 18.8926 14.258 18.4415C15.8411 16.8814 17.52 15.5559 19.0204 13.9151C19.4251 12.9377 18.2293 13.7614 17.8349 14.0138C15.6676 15.5073 13.5533 17.092 11.2684 18.4046C10.1012 19.0471 8.74081 18.498 7.57417 18.1395C6.52811 17.7064 4.99527 17.2701 5.89721 16.6097L5.89731 16.6096Z" fill="white"/>
</svg>
