<svg width="32" height="32" viewBox="0 0 32 32" fill="none" xmlns="http://www.w3.org/2000/svg">
<path fill-rule="evenodd" clip-rule="evenodd" d="M11.1389 0H20.8613C29.7342 0 31.8351 2.10091 31.8351 10.9739V20.6962C31.8351 29.5692 29.7342 31.6701 20.8613 31.6701H11.1389C2.26595 31.6701 0.165039 29.5692 0.165039 20.6962V10.9739C0.165039 2.10091 2.26595 0 11.1389 0Z" fill="#DCDCDC"/>
<path fill-rule="evenodd" clip-rule="evenodd" d="M26.0502 10.1088C26.2066 9.6171 26.0502 9.25949 25.3573 9.25949H23.0552C22.4741 9.25949 22.2059 9.57236 22.0495 9.90767C22.0495 9.90767 20.8649 12.7685 19.211 14.6235C18.6746 15.1599 18.4288 15.3387 18.1382 15.3387C17.9817 15.3387 17.7806 15.1599 17.7806 14.6682V10.0864C17.7806 9.50533 17.6018 9.23712 17.1101 9.23712H13.4894C13.1318 9.23712 12.9083 9.50533 12.9083 9.77353C12.9083 10.3323 13.7352 10.4664 13.8246 12.0309V15.4281C13.8246 16.1657 13.6906 16.2998 13.4 16.2998C12.6178 16.2998 10.718 13.4166 9.57815 10.1311C9.35461 9.48296 9.13114 9.23712 8.55006 9.23712H6.2256C5.55512 9.23712 5.44336 9.55006 5.44336 9.8853C5.44336 10.4888 6.2256 13.5284 9.0864 17.5514C10.9862 20.3004 13.6906 21.7755 16.1267 21.7755C17.6018 21.7755 17.7806 21.4403 17.7806 20.8816V18.803C17.7806 18.1325 17.9147 18.0208 18.3841 18.0208C18.7193 18.0208 19.3228 18.1995 20.6861 19.5182C22.2506 21.0827 22.5188 21.7979 23.3905 21.7979H25.6926C26.363 21.7979 26.676 21.4626 26.4972 20.8145C26.296 20.1663 25.5361 19.2277 24.5527 18.1101C24.0163 17.4843 23.2117 16.7915 22.9658 16.4562C22.6306 16.0092 22.72 15.8304 22.9658 15.4281C22.9435 15.4281 25.7596 11.4498 26.0502 10.1088Z" fill="white"/>
</svg>
