<svg width="32" height="32" viewBox="0 0 32 32" fill="none" xmlns="http://www.w3.org/2000/svg">
<path d="M0 15.8351C0 7.08959 7.08959 0 15.8351 0C24.5805 0 31.6701 7.08959 31.6701 15.8351C31.6701 24.5805 24.5805 31.6701 15.8351 31.6701C7.08959 31.6701 0 24.5805 0 15.8351Z" fill="#DCDCDC"/>
<path d="M23.9274 11.9246C23.7332 11.1784 23.1608 10.5907 22.434 10.3913C21.1169 10.0289 15.835 10.0289 15.835 10.0289C15.835 10.0289 10.5531 10.0289 9.23592 10.3913C8.50914 10.5907 7.93677 11.1784 7.74253 11.9246C7.38965 13.2771 7.38965 16.099 7.38965 16.099C7.38965 16.099 7.38965 18.9208 7.74253 20.2733C7.93677 21.0196 8.50914 21.6072 9.23592 21.8067C10.5531 22.1691 15.835 22.1691 15.835 22.1691C15.835 22.1691 21.1169 22.1691 22.434 21.8067C23.1608 21.6072 23.7332 21.0196 23.9274 20.2733C24.2804 18.9208 24.2804 16.099 24.2804 16.099C24.2804 16.099 24.2804 13.2771 23.9274 11.9246Z" fill="white"/>
<path d="M14.2517 19.002V13.7237L18.4744 16.363L14.2517 19.002Z" fill="#DCDCDC"/>
</svg>
